# xmcd
#
# Track frame offsets:
#        150
#        17997
#        34309
#        50679
#        66776
#        77431
#        95477
#        110300
#        132317
#        146688
#        162204
#        176553
#
# Disc length: 2561 seconds
#
# Revision: 0
# Processed by: cddbd v1.5.2PL0 Copyright (c) Steve Scherf et al.
# Submitted via: ExactAudioCopyFreeDBPlugin 1.0   GR/20.03.2012
#
DISCID=a109ff0c
DTITLE=Crossroads - Second Chance
DYEAR=2011
DGENRE=R&B
TTITLE0=Second Chance
TTITLE1=Paulo's Mood
TTITLE2=Hey Mama
TTITLE3=Big Chicken
TTITLE4=My Babe
TTITLE5=Dimples
TTITLE6=Key To The Highway
TTITLE7=Better Days
TTITLE8=You Upset Me Baby
TTITLE9=Outside Woman Blues
TTITLE10=Who's Been Talking
TTITLE11=Water And Oil
EXTD=
EXTT0=
EXTT1=
EXTT2=
EXTT3=
EXTT4=
EXTT5=
EXTT6=
EXTT7=
EXTT8=
EXTT9=
EXTT10=
EXTT11=
PLAYORDER=
